# xmcd
# 
# Track frame offsets:
#     150
#     10789
#     22434
#     34253
#     42807
#     52673
#     66221
#     74827
#     86992
#     96733
#     112442
#     122477
#     136447
# 
# Disc length: 1969
# 
# Revision: 0
# Processed by: cddbd v1.5.2PL0 Copyright (c) Steve Scherf et al.
# Submitted via: BonkEnc v1.0beta4
# 
DISCID=c807af0d
DTITLE=Bourbon Crow - Highway to Hangovers
DYEAR=2006
DGENRE=Country
TTITLE0=Alcohol Express
TTITLE1=Bed in the Desert
TTITLE2=A Dead Body
TTITLE3=Drink 'Till You Ain't Ugly
TTITLE4=Suck My Dixie
TTITLE5=I'm Not Hungover
TTITLE6=Bolts In This Redneck
TTITLE7=Headed For The Altar
TTITLE8=Lord Put My Girl
TTITLE9=I Wanna Go
TTITLE10=Rid The Devil
TTITLE11=I Wish I Cared
TTITLE12=Alcohol Is Awesome
EXTD=
EXTT0=
EXTT1=
EXTT2=
EXTT3=
EXTT4=
EXTT5=
EXTT6=
EXTT7=
EXTT8=
EXTT9=
EXTT10=
EXTT11=
EXTT12=
PLAYORDER=
